<?xml version="1.0" ?><svg xmlns="http://www.w3.org/2000/svg" viewBox="0 0 32 32"><g id="_14_message-chat-circle" data-name="14 message-chat-circle"><path d="M27.74,19.09A11,11,0,1,0,7.12,12.44,9,9,0,0,0,4,24.1l-.81,3.09a1.33,1.33,0,0,0,1.63,1.63L7.9,28A9,9,0,0,0,12,29a7.14,7.14,0,0,0,.8,0,9,9,0,0,0,6.76-4.09,10.64,10.64,0,0,0,3.53-1.13l4,1.05a1.42,1.42,0,0,0,1.73-1.74ZM12.62,27a6.86,6.86,0,0,1-4.09-.9l-.36-.2L5.4,26.6l.73-2.77-.2-.36A6.88,6.88,0,0,1,5,19.38,7,7,0,1,1,12.62,27Zm14-4.37-3.78-1-.36.2a8.77,8.77,0,0,1-1.84.8,8.83,8.83,0,0,0,.31-1.48,9,9,0,0,0-10-10,9.16,9.16,0,0,0-1.49.31,9.18,9.18,0,0,1,3-4.4A9,9,0,0,1,27,13.2a8.8,8.8,0,0,1-1.16,5.26l-.2.36Z"/></g></svg>