<svg xmlns="http://www.w3.org/2000/svg" viewBox="0 0 32 32"><defs><style>.cls-1{fill:none;stroke:#000;stroke-linejoin:round;stroke-width:2px;}</style></defs><title>49-pay</title><g id="_49-pay" data-name="49-pay"><polyline class="cls-1" points="26 9 26 1 6 1 6 31 26 31 26 23"/><path class="cls-1" d="M11,1V3a2,2,0,0,0,2,2h6a2,2,0,0,0,2-2V1"/><path class="cls-1" d="M19,18h0a2,2,0,0,0,2,2h2a2,2,0,0,0,2-2h0a2,2,0,0,0-2-2H21a2,2,0,0,1-2-2h0a2,2,0,0,1,2-2h2a2,2,0,0,1,2,2h0"/><line class="cls-1" x1="22" y1="12" x2="22" y2="10"/><line class="cls-1" x1="22" y1="22" x2="22" y2="20"/><circle class="cls-1" cx="22" cy="16" r="8"/><line class="cls-1" x1="14" y1="8" x2="14" y2="24"/></g></svg>