<?xml version="1.0" ?><svg height="257.13" viewBox="0 0 257.13 257.13" width="257.13" xmlns="http://www.w3.org/2000/svg"><path d="M203.75,138.92a37.55,37.55,0,0,1-2.83-9.4c-.69-5.57-3.85-9-8.41-11.54a38,38,0,0,1-3.47-2.42c.64-3.51,1.47-5.89,1.44-8.25A85.21,85.21,0,0,0,186,79.58c-2-5.75-3.36-11.73-7.6-16.38-2.58-2.83-4.89-6.21-8-8.11C164.9,51.8,159.1,48.66,153,46.92a175.09,175.09,0,0,0-26.59-5.23c-10.6-1.32-20.51,2.25-30.16,6.23-6.87,2.83-12,8-16.65,13.52a77.64,77.64,0,0,0-8.17,12.37,83.12,83.12,0,0,0-5.08,12,84.43,84.43,0,0,0-2.69,9.92c-.54,2.4-.43,5-1.2,7.28a14.93,14.93,0,0,0-.19,9.74c1,3,2.31,5.8,3.48,8.69,1.67,4.15,1.16,6.82-2,9.79-1.33,1.23-3,2.14-4.25,3.43a32.34,32.34,0,0,0-3.64,4.59c-.72,1.07-1.1,2.36-1.72,3.49-3.94,7.23-2.07,12.72,3.13,16.68a123.29,123.29,0,0,0,12.5,8.73c8.48,4.93,15.54,2.48,21-1.91.44-.36.9-.69,1.36-1a85,85,0,0,1,8.55-4.67c-.27,1.38-.59,2.46-.78,3.45a7.13,7.13,0,0,0-.15,1.5c.08,5-2,8.8-5.59,12.19a10.88,10.88,0,0,0-3.29,5.85,31.07,31.07,0,0,0,1.65,15.18c2.38,6.39,8.14,10.45,14.67,5.59,1.31-1,2-2.79,3.3-4.7-.7,5.23,2.69,7,6.27,8.57,1.17.49,2.66.19,3.87.62,2.53.89,3.86-.52,4.7-2.4a52.79,52.79,0,0,0,1.94-6.3c.91,2.87,1.75,5.48,2.5,7.84,3.92,1.41,7.48,2.39,11.1,1s5.67-4.74,7.35-8c4.83,1.22,8.08-1,10.68-4.37l3.81,2.71,3.24-1.54c4.18-2,6.6-5,5.7-9.9-.83-4.51-1.67-9-2.81-13.47a23.17,23.17,0,0,0-2.72-5.71c-1.71-2.94-3.59-5.79-5.3-8.53l3.78-5c5.31,1.13,10.73,1.88,15.88,3.5s9.77,1.91,14.56-.19c3.43-1.5,7.56-2.74,8.46-6.88S205.52,143.25,203.75,138.92Zm-55.93,54.42-.12-.33-2.35-6.18c-2.65,0-3.74,1.2-3.68,3.4a20.62,20.62,0,0,0,.22,2.71,9.41,9.41,0,0,0,.22,1.2c1.39,5.89.09,7.43-6.3,7.06-.25-.78-.51-1.6-.78-2.42-.13-.4-.26-.81-.41-1.21-1.87-5.11-7.43-6.86-11.75-3.71-.12.08-.24.16-.35.25A6,6,0,0,0,121,197a38.33,38.33,0,0,0-.73,4.49c-3.2-.53-4.75-2.09-4.54-4.75.24-3-1.45-5-3-7.08l-.64-.86c-1.6-2.26-4.52-1.81-5.51.79,0,0,0,0,0,.05a27.79,27.79,0,0,0-.86,5.3c-.29,1.86-.6,3.72-.94,5.79-6.91-3.48-10.11-12.8-6-17.91a41.52,41.52,0,0,0,3.61-5.28,46.72,46.72,0,0,0,4-9.18c.63-2,1.15-4,1.59-6,.11-.49.21-1,.3-1.48a6,6,0,0,1,.48-1l3.7-.57c-.13-3.85-1.14-5.17-4.06-5.71a23.31,23.31,0,0,0-17.78,3.85c-2.84,1.88-5.88,3.47-9.08,5.2-.89.49-1.8,1-2.72,1.5l-3.05-1.76L69.87,159c-2.51-1.44-5-2.86-7.4-4.29-2.89-1.69-4-3.59-2.63-6.46,2-4.27,3-9,6.88-12.43,4.23-3.73,4.76-9,3.34-14.23-.92-3.4-2-6.66-1-10.26.28-1-.23-2.28-.59-3.37-1.79-5.28-1-10.15,1.14-15.3,2-4.81,4.06-9.56,6.32-14.27a52.17,52.17,0,0,1,39-28,56,56,0,0,1,16.53.39c4.13.61,8.23,1.47,12.35,2.21a52.84,52.84,0,0,1,21.37,9.47,29.63,29.63,0,0,1,11.2,15.86c2.58,8.16,3.58,16.66,5.22,25a11,11,0,0,1,0,5.36c-1.6,4.75-.79,9.55-.85,14.34a5.77,5.77,0,0,0,.61,2.75,5.21,5.21,0,0,0,2.87,2.39l.23-.11,3.1-1.51c4.55.55,6.48,3.78,7.89,7.47a22.3,22.3,0,0,1,1.11,4.34c1.65,10.13-3.48,13.33-12.41,12.77s-17.61-2.64-26.4-4.12c-2.27-.38-4.3-.61-5.22,2.61l4.47,2.53a19.29,19.29,0,0,1-2.49,3.78c-2.47,2.37-2.19,5-1.26,7.81a55.76,55.76,0,0,0,2.39,6.48c1.65,3.5,1.2,6.66-.83,9.82-1.84,2.87-2.82,5.73-1.37,9.36a3.76,3.76,0,0,1,.34,2C153.53,192.86,151.64,193.41,147.82,193.34Zm17.74-6.11a9.1,9.1,0,0,1-3.05,2.17c-3.2-3-3-5,1.24-10.61a42.05,42.05,0,0,1,1.88,4.21C166.34,185,166.34,186.21,165.56,187.23Zm-49-52.34a10.25,10.25,0,0,1-1.77,3.35c-3.91,5-8.69,8.93-15.38,8.33-3.83-.35-7.55-2.07-11.28-3.28-1.23-.4-2.3-1.36-3.54-1.7a8,8,0,0,1-1.84-.76c-2.62-1.44-4-4.07-4.84-6.68-2.65-8.05-1.4-16.09,2.16-23.59,1-2.13,3.68-3.65,5.86-5a42.8,42.8,0,0,1,6.5-2.72,61.41,61.41,0,0,1,6.71,2.64c2,1.05,4.31,2.16,5.48,3.91,3.92,5.87,7.54,11.94,11,18.12A9.41,9.41,0,0,1,116.52,134.89Zm15.63,5.16a4.14,4.14,0,0,1,1.39-.56c2.91-.6,5.16.25,6.18,2.65a27.34,27.34,0,0,1,1.51,15.6l-4,1.75c-3-.51-3.33-3-4.41-5-1.94-3.6-1.64-7.61-2.11-11.46,0,0,0,0,0-.06A3,3,0,0,1,132.15,140.05Zm-5.65,2.49.11,0c1.71.11,2.83,1,2.94,2.59a68.41,68.41,0,0,1,0,8.35,48.55,48.55,0,0,1-1,6.3,5.61,5.61,0,0,1-3.66,4.36c-3.4-1.09-3.85-4-4.24-6.88l0-.2c-.58-4.41,1.2-8.39,2.35-12.47C123.44,143,124.8,142.47,126.5,142.54Zm2.06,42.64c.09,1.9-2.06,3.85-4.3,3.91a3.3,3.3,0,0,1-3.6-3.18c-.11-2,1.23-3.88,2.87-4C125.5,181.81,128.5,183.75,128.56,185.18ZM152.84,141c-4-.81-8-1.74-12.09-2.39-2-.32-2.76-1.44-3.44-3.09a14.12,14.12,0,0,1,.26-13.23c2.18-4.12,2.84-9.07,4-13.7,1.25-5,4.19-8,9.2-9.28,4.26-1.08,8.42-1.74,12.64.14,1.56.7,2.9,1.39,3.44,3.23.84,2.88,1.83,5.73,2.74,8.59.58,1.84,1.13,3.7,1.59,5.57,1.6,6.66-.57,12.83-4.17,18.22-2.4,3.61-6.81,4.79-11.07,5.43a21.44,21.44,0,0,1-3,0Z" fill="#1d1d1b"/></svg>