<?xml version="1.0" ?><svg xmlns="http://www.w3.org/2000/svg" xmlns:xlink="http://www.w3.org/1999/xlink" version="1.1" viewBox="0 0 64 64" style="enable-background:new 0 0 64 64;" xml:space="preserve"><g id="cappucino"/><g id="soft_drink"/><g id="energy_drink"/><g id="milkshake"/><g id="beer"/><g id="mineral_water"/><g id="coffee_cup"/><g id="wine"/><g id="whiskey"/><g id="kombucha"/><g id="ice_tea"/><g id="tea"/><g id="cocktail"><g><path d="M58.5,10.4l-12-7.2c-0.5-0.3-1-0.2-1.3,0.3L37,15H22.9c-0.2-2.1-1.2-3.9-2.6-5.3c0,0,0,0,0,0s0,0,0,0C18.7,8,16.5,7,14,7    S9.3,8,7.7,9.6c0,0,0,0,0,0s0,0,0,0C6,11.3,5,13.5,5,16s1,4.7,2.6,6.3c0,0,0,0,0,0s0,0,0,0c1.4,1.4,3.3,2.3,5.4,2.6    c0.4,9,7.2,16.4,16,17.8v10.6l-6.8,3.4c-0.8,0.4-1.2,1.1-1.2,2c0,1.2,1,2.2,2.2,2.2h17.5c1.2,0,2.2-1,2.2-2.2c0-0.9-0.5-1.6-1.2-2    L35,53.4V42.7c9.1-1.4,16-9.3,16-18.7v-8c0-0.6-0.4-1-1-1h-5.5l3.1-4.2l7.8,4.7c0.2,0.1,0.5,0.2,0.8,0.1c0.3-0.1,0.5-0.2,0.6-0.5    l2.1-3.4C59.1,11.3,59,10.7,58.5,10.4z M7.1,17h4.5l-3.2,3.2C7.7,19.3,7.3,18.2,7.1,17z M8.4,11.8l3.2,3.2H7.1    C7.3,13.8,7.7,12.7,8.4,11.8z M15,9.1c1.2,0.2,2.3,0.6,3.2,1.3L15,13.6V9.1z M13,13.6l-3.2-3.2c0.9-0.7,2-1.2,3.2-1.3V13.6z     M13,18.4v4.5c-1.2-0.2-2.3-0.6-3.2-1.3L13,18.4z M19.6,11.8c0.7,0.9,1.2,2,1.3,3.2h-4.5L19.6,11.8z M33,43v11    c0,0.4,0.2,0.7,0.6,0.9l7.3,3.7c0.1,0,0.1,0.1,0.1,0.2c0,0.1-0.1,0.2-0.2,0.2H23.2c-0.1,0-0.2-0.1-0.2-0.2c0-0.1,0.1-0.2,0.1-0.2    l7.3-3.7c0.3-0.2,0.6-0.5,0.6-0.9V43H33z M49,24c0,9.4-7.6,17-17,17s-17-7.6-17-17v-7h34V24z M55.6,13.3l-7.7-4.7    c-0.4-0.3-1-0.2-1.3,0.3L42,15h-2.6l6.8-9.7l10.3,6.2L55.6,13.3z"/><path d="M17.4,21.2C17.1,21.4,17,21.7,17,22v2c0,8.3,6.7,15,15,15c8.3,0,15-6.7,15-15v-2c0-0.4-0.2-0.7-0.6-0.9    c-0.3-0.2-0.7-0.1-1,0.1c-0.1,0-5.6,4.1-12.9-0.1C24,16.4,17.7,21,17.4,21.2z M45,23.7V24c0,7.2-5.8,13-13,13c-7.2,0-13-5.8-13-13    v-1.5c1.4-0.8,6.3-3.2,12.5,0.3C37.6,26.3,42.6,24.9,45,23.7z"/></g></g><g id="juice"/><g id="lemonade"/><g id="mocktail"/><g id="bubble_tea"/><g id="coffee"/><g id="water"/><g id="milk"/></svg>